<svg width="25" height="24" viewBox="0 0 25 24" fill="none" xmlns="http://www.w3.org/2000/svg">
<g id="Courses">
<path id="Vector" d="M2.92969 14.9542L1.06509 14.5429C0.518604 15.6454 0 16.8839 0 18.3108C0 19.7104 0.497607 20.9338 1.06509 22.0787L7.37305 20.6872V23.4314L9.57031 22.3328L11.7676 23.4314V20.6887L18.0263 22.0795C18.5686 20.9855 19.0918 19.7437 19.0918 18.3108C19.0918 18.0638 19.0735 17.818 19.0428 17.5784H25V0.000244141H2.92969V14.9542ZM1.90088 20.3942C1.71035 19.8904 1.46484 19.09 1.46484 18.3108C1.46484 17.5314 1.7104 16.7309 1.90088 16.2273L7.37305 17.4344V19.1872L1.90088 20.3942ZM10.3027 21.0612L9.57031 20.695L8.83789 21.0612V17.5783H10.3027V21.0612ZM17.1913 20.3934L11.7676 19.1881V17.4334L17.1913 16.2282C17.3817 16.7321 17.627 17.532 17.627 18.3107C17.627 19.0897 17.3817 19.8897 17.1913 20.3934ZM23.5352 1.46509V16.1135H18.7038C18.4637 15.379 18.2701 15.0322 18.0263 14.5421L10.9548 16.1135H8.18535L4.39453 15.2773V1.46509H23.5352Z" fill="black"/>
<path id="Vector_2" d="M8.83789 2.92993H19.0918V4.39478H8.83789V2.92993Z" fill="black"/>
<path id="Vector_3" d="M5.85938 8.78931H22.0703V10.2542H5.85938V8.78931Z" fill="black"/>
<path id="Vector_4" d="M8.83789 11.719H19.0918V13.1838H8.83789V11.719Z" fill="black"/>
<path id="Vector_5" d="M10.3027 5.85962H11.7676V7.32446H10.3027V5.85962Z" fill="black"/>
<path id="Vector_6" d="M13.2324 5.85962H14.6973V7.32446H13.2324V5.85962Z" fill="black"/>
<path id="Vector_7" d="M16.1621 5.85962H17.627V7.32446H16.1621V5.85962Z" fill="black"/>
</g>
</svg>
