<svg width="25" height="25" viewBox="0 0 25 25" fill="none" xmlns="http://www.w3.org/2000/svg">
<g id="seo 1" clip-path="url(#clip0_11_10)">
<g id="Group">
<g id="Group_2">
<path id="Vector" d="M22.5 3.75024H11.25V4.58358H22.5V3.75024Z" fill="black"/>
</g>
</g>
<g id="Group_3">
<g id="Group_4">
<path id="Vector_2" d="M18.3333 5.41687H11.25V6.2502H18.3333V5.41687Z" fill="black"/>
</g>
</g>
<g id="Group_5">
<g id="Group_6">
<path id="Vector_3" d="M18.3333 7.08362H11.25V7.91695H18.3333V7.08362Z" fill="black"/>
</g>
</g>
<g id="Group_7">
<g id="Group_8">
<path id="Vector_4" d="M22.5 2.08362H14.5833V2.91695H22.5V2.08362Z" fill="black"/>
</g>
</g>
<g id="Group_9">
<g id="Group_10">
<path id="Vector_5" d="M13.75 2.08362H12.9167V2.91695H13.75V2.08362Z" fill="black"/>
</g>
</g>
<g id="Group_11">
<g id="Group_12">
<path id="Vector_6" d="M12.9166 16.6669H12.0833V17.5002H12.9166V16.6669Z" fill="black"/>
</g>
</g>
<g id="Group_13">
<g id="Group_14">
<path id="Vector_7" d="M6.96124 2.79485L6.37207 2.20569L5.53874 3.03902C5.37608 3.20173 5.37608 3.46548 5.53874 3.62819L6.37207 4.46152L6.96124 3.87235L6.42249 3.3336L6.96124 2.79485Z" fill="black"/>
</g>
</g>
<g id="Group_15">
<g id="Group_16">
<path id="Vector_8" d="M10.2946 3.03902L9.46124 2.20569L8.87207 2.79485L9.41082 3.3336L8.87207 3.87235L9.46124 4.46152L10.2946 3.62819C10.4572 3.46548 10.4572 3.20173 10.2946 3.03902Z" fill="black"/>
</g>
</g>
<g id="Group_17">
<g id="Group_18">
<path id="Vector_9" d="M7.93836 1.95134L7.10425 4.45129L7.89435 4.71491L8.72846 2.21496L7.93836 1.95134Z" fill="black"/>
</g>
</g>
<g id="Group_19">
<g id="Group_20">
<path id="Vector_10" d="M21.6667 12.9169V9.58358H20.8334V12.9169H20V8.75024H19.1667V12.9169H18.3334V10.8336H17.5V12.9169H16.6667V10.4169H15.8334V12.9169H15V11.2502H14.1667V12.9169H13.3334V13.7502H22.5V12.9169H21.6667Z" fill="black"/>
</g>
</g>
<g id="Group_21">
<g id="Group_22">
<path id="Vector_11" d="M22.0834 0.000244141H2.91669C1.53653 0.00159831 0.418041 1.12009 0.416687 2.50024V10.6777V10.6815V15.4169V16.6669C0.418041 18.0471 1.53653 19.1656 2.91669 19.1669H8.07585L6.40919 22.5002H4.16669C3.47632 22.5002 2.91669 23.0599 2.91669 23.7502C2.91669 24.4406 3.47632 25.0002 4.16669 25.0002H20.8334C21.5237 25.0002 22.0834 24.4406 22.0834 23.7502C22.0834 23.0599 21.5237 22.5002 20.8334 22.5002H18.5909L16.9242 19.1669H22.0834C23.4635 19.1656 24.582 18.0471 24.5834 16.6669V2.50024C24.582 1.12009 23.4635 0.00159831 22.0834 0.000244141ZM1.25002 5.86274L2.1971 6.99024C2.27627 7.08457 2.39315 7.13899 2.51627 7.13899H3.79169C3.91481 7.13899 4.03169 7.08457 4.11085 6.99024L5.05835 5.86274L5.99335 6.16649L6.09669 7.63441C6.10523 7.75717 6.16762 7.86988 6.2671 7.94233L7.29919 8.69233C7.39903 8.76441 7.52549 8.78894 7.64502 8.75941L9.07544 8.40399L9.65377 9.19941L8.87419 10.4494C8.8096 10.5542 8.79466 10.6822 8.83335 10.799L9.22794 12.0119C9.26591 12.1289 9.35356 12.2232 9.46752 12.2694L10.8334 12.8232V13.8065L9.46669 14.3602C9.35247 14.4063 9.26466 14.5008 9.2271 14.6182L9.1021 15.0002H6.70169C7.63544 13.0452 6.80752 10.7034 4.85252 9.76967C3.70424 9.22123 2.36122 9.26384 1.25002 9.88399V5.86274ZM1.25002 10.8752C2.59773 9.82384 4.54262 10.064 5.59398 11.4118C6.40575 12.4523 6.46841 13.8932 5.75002 15.0002H1.25002V10.8752ZM20.8334 23.3336C21.0635 23.3336 21.25 23.5201 21.25 23.7502C21.25 23.9803 21.0635 24.1669 20.8334 24.1669H4.16669C3.93658 24.1669 3.75002 23.9803 3.75002 23.7502C3.75002 23.5201 3.93658 23.3336 4.16669 23.3336H20.8334ZM17.6592 22.5002H7.34085L9.00752 19.1669H15.9925L17.6592 22.5002ZM23.75 16.6669C23.75 17.5874 23.0038 18.3336 22.0834 18.3336H2.91669C1.99622 18.3336 1.25002 17.5874 1.25002 16.6669V15.8336H5.96752H5.97127H23.75V16.6669ZM23.75 15.0002H10.1063L11.4067 14.4732C11.5638 14.4094 11.6666 14.2569 11.6667 14.0873V12.5419C11.6667 12.3722 11.5639 12.2195 11.4067 12.1557L9.95835 11.5698L9.68419 10.7261L10.51 9.40108C10.5996 9.25712 10.593 9.07326 10.4934 8.93608L9.58502 7.68608C9.48528 7.54873 9.31226 7.48561 9.14752 7.52649L7.63252 7.90149L6.91669 7.38149L6.8071 5.82733C6.79518 5.6579 6.68158 5.51264 6.52002 5.46024L5.05127 4.98274C4.88966 4.93129 4.71299 4.98207 4.60335 5.11149L3.60044 6.30524H2.71169L1.70835 5.11149C1.59867 4.98191 1.42174 4.93108 1.26002 4.98274L1.25002 4.98649V2.50024C1.25002 1.57978 1.99622 0.833577 2.91669 0.833577H22.0834C23.0038 0.833577 23.75 1.57978 23.75 2.50024V15.0002Z" fill="black"/>
</g>
</g>
</g>
<defs>
<clipPath id="clip0_11_10">
<rect width="25" height="25" fill="white" transform="translate(0 0.000244141)"/>
</clipPath>
</defs>
</svg>
