<svg width="25" height="25" viewBox="0 0 25 25" fill="none" xmlns="http://www.w3.org/2000/svg">
<g id="designer" clip-path="url(#clip0_11_2)">
<g id="Graphic Designer-Computer-Monitor-Graphic Tablet-Designer">
<path id="Vector" d="M20.2645 19.1459L19.6145 19.5795L21.1449 21.8752H3.85469L5.67773 19.1409H15.6023V18.3596H5.46875C5.40446 18.3596 5.34115 18.3755 5.28446 18.4058C5.22777 18.4361 5.17943 18.48 5.14375 18.5334L2.8 22.0491C2.75732 22.1133 2.7345 22.1887 2.73438 22.2659V23.4377C2.73438 23.6449 2.81668 23.8437 2.9632 23.9902C3.10971 24.1367 3.30842 24.219 3.51562 24.219H21.4844C21.6916 24.219 21.8903 24.1367 22.0368 23.9902C22.1833 23.8437 22.2656 23.6449 22.2656 23.4377V22.2659C22.2655 22.1887 22.2427 22.1133 22.2 22.0491L20.2645 19.1459ZM3.51562 23.4377V22.6565H21.4844V23.4377H3.51562Z" fill="black"/>
<path id="Vector_2" d="M20.3125 0.781494H4.6875C4.37698 0.782422 4.07945 0.906184 3.85988 1.12575C3.64032 1.34532 3.51655 1.64285 3.51562 1.95337V12.1096C3.51655 12.4201 3.64032 12.7177 3.85988 12.9372C4.07945 13.1568 4.37698 13.2806 4.6875 13.2815H10.1562V14.844H8.59375C8.49015 14.844 8.39079 14.8851 8.31754 14.9584C8.24428 15.0317 8.20312 15.131 8.20312 15.2346V16.7971C8.20312 16.9007 8.24428 17.0001 8.31754 17.0733C8.39079 17.1466 8.49015 17.1877 8.59375 17.1877H16.4062C16.5099 17.1877 16.6092 17.1466 16.6825 17.0733C16.7557 17.0001 16.7969 16.9007 16.7969 16.7971V15.2346C16.7969 15.131 16.7557 15.0317 16.6825 14.9584C16.6092 14.8851 16.5099 14.844 16.4062 14.844H14.8438V13.2815H20.3125C20.623 13.2806 20.9205 13.1568 21.1401 12.9372C21.3597 12.7177 21.4834 12.4201 21.4844 12.1096V1.95337C21.4834 1.64285 21.3597 1.34532 21.1401 1.12575C20.9205 0.906184 20.623 0.782422 20.3125 0.781494ZM16.0156 15.6252V16.4065H8.98438V15.6252H16.0156ZM10.9375 14.844V13.2815H14.0625V14.844H10.9375ZM20.7031 12.1096C20.7031 12.2132 20.662 12.3126 20.5887 12.3858C20.5155 12.4591 20.4161 12.5002 20.3125 12.5002H4.6875C4.5839 12.5002 4.48454 12.4591 4.41129 12.3858C4.33803 12.3126 4.29688 12.2132 4.29688 12.1096V10.9377H20.7031V12.1096ZM20.7031 10.1565H4.29688V1.95337C4.29688 1.84977 4.33803 1.75041 4.41129 1.67716C4.48454 1.6039 4.5839 1.56274 4.6875 1.56274H20.3125C20.4161 1.56274 20.5155 1.6039 20.5887 1.67716C20.662 1.75041 20.7031 1.84977 20.7031 1.95337V10.1565Z" fill="black"/>
<path id="Vector_3" d="M18.3594 11.3284H19.1406V12.1096H18.3594V11.3284Z" fill="black"/>
<path id="Vector_4" d="M8.98438 9.37524H10.5469C10.6505 9.37524 10.7498 9.33409 10.8231 9.26083C10.8963 9.18758 10.9375 9.08822 10.9375 8.98462V8.59399H14.0625V8.98462C14.0625 9.08822 14.1037 9.18758 14.1769 9.26083C14.2502 9.33409 14.3495 9.37524 14.4531 9.37524H16.0156C16.1192 9.37524 16.2186 9.33409 16.2918 9.26083C16.3651 9.18758 16.4062 9.08822 16.4062 8.98462V7.42212C16.4062 7.31852 16.3651 7.21916 16.2918 7.14591C16.2186 7.07265 16.1192 7.03149 16.0156 7.03149H15.625V4.68774H16.0156C16.1192 4.68774 16.2186 4.64659 16.2918 4.57333C16.3651 4.50008 16.4062 4.40072 16.4062 4.29712V2.73462C16.4062 2.63102 16.3651 2.53166 16.2918 2.45841C16.2186 2.38515 16.1192 2.34399 16.0156 2.34399H14.4531C14.3495 2.34399 14.2502 2.38515 14.1769 2.45841C14.1037 2.53166 14.0625 2.63102 14.0625 2.73462V3.12524H10.9375V2.73462C10.9375 2.63102 10.8963 2.53166 10.8231 2.45841C10.7498 2.38515 10.6505 2.34399 10.5469 2.34399H8.98438C8.88077 2.34399 8.78142 2.38515 8.70816 2.45841C8.6349 2.53166 8.59375 2.63102 8.59375 2.73462V4.29712C8.59375 4.40072 8.6349 4.50008 8.70816 4.57333C8.78142 4.64659 8.88077 4.68774 8.98438 4.68774H9.375V7.03149H8.98438C8.88077 7.03149 8.78142 7.07265 8.70816 7.14591C8.6349 7.21916 8.59375 7.31852 8.59375 7.42212V8.98462C8.59375 9.08822 8.6349 9.18758 8.70816 9.26083C8.78142 9.33409 8.88077 9.37524 8.98438 9.37524ZM15.625 8.59399H14.8438V7.81274H15.625V8.59399ZM14.8438 3.12524H15.625V3.90649H14.8438V3.12524ZM9.375 3.12524H10.1562V3.90649H9.375V3.12524ZM10.1562 4.68774H10.5469C10.6505 4.68774 10.7498 4.64659 10.8231 4.57333C10.8963 4.50008 10.9375 4.40072 10.9375 4.29712V3.90649H14.0625V4.29712C14.0625 4.40072 14.1037 4.50008 14.1769 4.57333C14.2502 4.64659 14.3495 4.68774 14.4531 4.68774H14.8438V7.03149H14.4531C14.3495 7.03149 14.2502 7.07265 14.1769 7.14591C14.1037 7.21916 14.0625 7.31852 14.0625 7.42212V7.81274H10.9375V7.42212C10.9375 7.31852 10.8963 7.21916 10.8231 7.14591C10.7498 7.07265 10.6505 7.03149 10.5469 7.03149H10.1562V4.68774ZM9.375 7.81274H10.1562V8.59399H9.375V7.81274Z" fill="black"/>
<path id="Vector_5" d="M8.98438 20.3127H14.4531V21.094H8.98438V20.3127Z" fill="black"/>
<path id="Vector_6" d="M23.3867 14.3909L22.2813 13.2854C22.2449 13.249 22.2016 13.2203 22.154 13.2008C22.1064 13.1814 22.0553 13.1716 22.0039 13.1721C21.9531 13.1716 21.9026 13.1814 21.8556 13.2009C21.8086 13.2203 21.7661 13.2491 21.7305 13.2854L16.4805 18.5354C16.4377 18.5781 16.4055 18.6303 16.3867 18.6878L16.1094 19.5159C16.0871 19.5845 16.084 19.658 16.1005 19.7282C16.1171 19.7985 16.1526 19.8628 16.2031 19.9143L15.6523 20.469L16.2031 21.0198L16.7578 20.469C16.7936 20.505 16.8363 20.5336 16.8832 20.553C16.9301 20.5725 16.9804 20.5824 17.0312 20.5823C17.0736 20.5818 17.1157 20.5753 17.1562 20.5628L17.9844 20.2854C18.0418 20.2666 18.094 20.2345 18.1367 20.1917L23.3867 14.9417C23.4595 14.8685 23.5003 14.7695 23.5003 14.6663C23.5003 14.5631 23.4595 14.4641 23.3867 14.3909ZM17.6523 19.5745L17.1406 19.7425L16.9258 19.5315L17.0977 19.0198L20.8984 15.219L21.4531 15.7698L17.6523 19.5745ZM22.0039 15.219L21.4531 14.6682L22.0039 14.1135L22.5586 14.6682L22.0039 15.219Z" fill="black"/>
</g>
</g>
<defs>
<clipPath id="clip0_11_2">
<rect width="25" height="25" fill="white" transform="translate(0 0.000244141)"/>
</clipPath>
</defs>
</svg>
