<svg width="21" height="25" viewBox="0 0 21 25" fill="none" xmlns="http://www.w3.org/2000/svg">
<g id="University">
<path id="Vector" d="M17.7169 16.3332L16.2497 15.9024L13.0575 13.8174V13.3397C13.9817 12.6425 14.6164 11.577 14.7343 10.3555C15.1978 10.2809 15.553 9.87814 15.553 9.39396V8.08024C15.553 8.07516 15.5524 8.07018 15.5522 8.0651V6.40094C15.7369 6.26871 15.854 6.05333 15.854 5.81173V4.28878L18.057 3.91354C18.4191 3.85187 18.6794 3.56432 18.705 3.19796C18.7305 2.8316 18.5126 2.51071 18.1626 2.39943L10.736 0.0372192C10.5811 -0.0120972 10.4174 -0.0120483 10.2625 0.0371704L2.83579 2.39943C2.48583 2.51071 2.26787 2.8316 2.2934 3.19791C2.30961 3.43068 2.42084 3.63136 2.59252 3.76281V5.75436H2.57436C2.15615 5.75436 1.81591 6.09459 1.81591 6.5128V7.50138L1.32631 10.375C1.24169 10.872 1.62451 11.327 2.12988 11.327H3.78754C4.29179 11.327 4.67592 10.8731 4.59111 10.375L4.10151 7.50138V6.5128C4.10151 6.09459 3.76127 5.75436 3.34306 5.75436H3.32495V3.97882L5.14594 4.28898V5.81173C5.14594 6.05231 5.26259 6.26735 5.44638 6.39977L5.44707 8.08038V9.39396C5.44707 9.87819 5.80219 10.2809 6.26572 10.3555C6.38364 11.5763 7.01762 12.6414 7.94096 13.3385V13.8185L4.74946 15.9031L3.28339 16.3335C1.71459 16.7939 0.606879 18.2342 0.606879 19.9084V20.9998C0.606879 21.2021 0.770795 21.366 0.97309 21.366C1.17538 21.366 1.3393 21.2021 1.3393 20.9998V19.9084C1.3393 18.5889 2.22353 17.4078 3.48969 17.0362L4.85571 16.6352L10.313 19.878C10.4238 19.9439 10.5704 19.9474 10.6872 19.878L16.1448 16.635L17.5107 17.036C18.7767 17.4077 19.6609 18.5887 19.6609 19.9082V23.4452C19.6609 23.8988 19.2918 24.2679 18.8381 24.2679H17.224V22.6894C17.224 22.4872 17.0601 22.3232 16.8578 22.3232C16.6556 22.3232 16.4916 22.4871 16.4916 22.6894V24.2679H4.50683V22.6894C4.50683 22.4872 4.34291 22.3232 4.14062 22.3232C3.93832 22.3232 3.77441 22.4871 3.77441 22.6894V24.2679H2.16196C1.70829 24.2679 1.3392 23.8988 1.3392 23.4452V22.7117C1.3392 22.5094 1.17529 22.3455 0.972992 22.3455C0.770697 22.3455 0.606781 22.5094 0.606781 22.7117V23.4451C0.606781 24.3026 1.30439 25.0003 2.16191 25.0003H18.838C19.6956 25.0003 20.3932 24.3026 20.3932 23.4451V19.9081C20.3932 18.2734 19.3232 16.8048 17.7169 16.3332ZM3.78749 10.5945H2.12988C2.07866 10.5945 2.03959 10.5488 2.04828 10.498L2.49116 7.89855H3.42621L3.86909 10.4979C3.87773 10.5486 3.83896 10.5945 3.78749 10.5945ZM3.36909 6.5128V7.16617H2.54824V6.5128C2.54824 6.4984 2.55991 6.48673 2.57431 6.48673H3.34296C3.35742 6.48668 3.36909 6.4984 3.36909 6.5128ZM9.19028 18.2215L9.33603 18.4455L5.59731 16.224L7.97041 14.6739C8.07802 15.9366 8.49423 17.1517 9.19028 18.2215ZM9.18774 16.6407C10.0497 16.7631 10.9498 16.7632 11.8123 16.6407C11.6456 17.0507 11.4402 17.4464 11.1958 17.8221L10.5 18.8917L9.80415 17.8221C9.55976 17.4464 9.35439 17.0507 9.18774 16.6407ZM11.8097 18.2215C12.5058 17.1517 12.922 15.9366 13.0295 14.6739L15.4026 16.2239L11.664 18.4455L11.8097 18.2215ZM13.9519 6.53732H14.8198V7.71398H14.389C14.1479 7.71398 13.9518 7.51788 13.9518 7.27682V6.53732H13.9519ZM3.05776 3.09738L10.4846 0.735071C10.4941 0.732043 10.5043 0.731995 10.514 0.73512L17.9408 3.09738C17.9561 3.10226 17.9771 3.1089 17.9745 3.14703C17.9718 3.18512 17.95 3.18878 17.9341 3.19152L15.4787 3.60973L14.5568 3.49572C14.3562 3.47086 14.1733 3.61354 14.1484 3.81422C14.1236 4.01495 14.2663 4.19777 14.4669 4.22257L15.1217 4.30358V5.80494L5.87832 5.8046V4.30353L9.66772 3.83463C10.2197 3.76642 10.7792 3.76642 11.3308 3.83463L12.765 4.01202C12.9657 4.03688 13.1486 3.89425 13.1734 3.69357C13.1983 3.49283 13.0557 3.31002 12.855 3.28517L11.4207 3.10778C10.8096 3.03214 10.1894 3.03214 9.57783 3.10778L5.5205 3.60983L3.0643 3.19152C3.04838 3.18878 3.02665 3.18512 3.02397 3.14703C3.02133 3.1089 3.04238 3.10221 3.05776 3.09738ZM6.17924 7.71398L6.17875 6.53732H7.04814V7.27687C7.04814 7.51788 6.85205 7.71403 6.61093 7.71403H6.17924V7.71398ZM6.98525 10.1673C6.9664 9.8691 6.71855 9.63551 6.42104 9.63551C6.28779 9.63551 6.17939 9.52711 6.17939 9.39391V8.4464H6.61093C7.25581 8.4464 7.78051 7.92174 7.78051 7.27687V6.53732H13.2194V7.27687C13.2194 7.92174 13.7441 8.4464 14.389 8.4464H14.8206V9.39391C14.8206 9.52711 14.7122 9.63551 14.5789 9.63551C14.2814 9.63551 14.0335 9.8691 14.0147 10.1673C13.898 12.0164 12.3542 13.4649 10.4999 13.4649C8.6457 13.4649 7.1019 12.0164 6.98525 10.1673ZM10.5 14.1973C11.1513 14.1973 11.7704 14.0484 12.3251 13.7836V14.0156C12.3251 14.6418 12.2406 15.2594 12.078 15.8551C11.0828 16.0448 9.95761 16.0525 8.92202 15.8551C8.75937 15.2594 8.6749 14.6418 8.6749 14.0156C8.6749 14.0079 8.67382 14.0003 8.67334 13.9926C8.67324 13.9911 8.67338 13.9896 8.67329 13.9881V13.7828C9.22841 14.0481 9.84804 14.1973 10.5 14.1973Z" fill="black"/>
</g>
</svg>
