<svg width="30" height="30" viewBox="0 0 30 30" fill="none" xmlns="http://www.w3.org/2000/svg">
<path id="Telegram" d="M15 30.001C23.2863 30.001 30 23.2872 30 15.001C30 6.71473 23.2863 0.000976562 15 0.000976562C6.71375 0.000976562 0 6.71473 0 15.001C0 23.2872 6.71375 30.001 15 30.001ZM6.86375 14.676L21.3263 9.09973C21.9975 8.85723 22.5837 9.26348 22.3662 10.2785L22.3675 10.2772L19.905 21.8785C19.7225 22.701 19.2337 22.901 18.55 22.5135L14.8 19.7497L12.9912 21.4922C12.7912 21.6922 12.6225 21.861 12.235 21.861L12.5013 18.0447L19.4513 11.766C19.7537 11.4997 19.3837 11.3497 18.985 11.6147L10.3963 17.0222L6.69375 15.8672C5.89 15.6122 5.8725 15.0635 6.86375 14.676Z" fill="black"/>
</svg>
